<?xml version="1.0" encoding="UTF-8"?>
<!-- Generator: Adobe Illustrator 24.0.3, SVG Export Plug-In . SVG Version: 6.00 Build 0)  -->
<svg version="1.1" id="Layer_1" xmlns="http://www.w3.org/2000/svg" xmlns:xlink="http://www.w3.org/1999/xlink" x="0px" y="0px" viewBox="0 0 609.7 386.2" style="enable-background:new 0 0 609.7 386.2;" xml:space="preserve"><title> - https://upload.wikimedia.org/wikipedia/commons/c/cc/Bitwarden_logo.svg </title>
<style type="text/css">
	.st0{fill:#175ddc;}
</style>
<path class="st0" d="M44.6,307.8c8.4,0,15,3.3,19.8,9.9c4.8,6.6,7.2,15.6,7.2,27.1c0,11.8-2.5,20.9-7.4,27.4  c-4.9,6.5-11.6,9.7-20.1,9.7c-8.4,0-15-3-19.7-9.1H23l-2.6,6.3c-0.4,0.9-1.3,1.5-2.3,1.5H7.3c-1.4,0-2.5-1.1-2.5-2.5v-94.4  c0-1.4,1.1-2.5,2.5-2.5h14.5c1.4,0,2.5,1.1,2.5,2.5v20.6c0,2.9-0.3,7.6-0.8,14.1h0.8C28.9,311.4,35.6,307.8,44.6,307.8z M38.3,323.4  c-4.8,0-8.3,1.5-10.5,4.4c-2.2,3-3.4,7.8-3.4,14.7v2.1c0,7.7,1.1,13.2,3.4,16.5c2.3,3.3,5.9,5,10.8,5c4,0,7.2-1.8,9.6-5.5  c2.4-3.7,3.5-9,3.5-16.1c0-7-1.2-12.3-3.6-15.8C45.7,325.2,42.4,323.4,38.3,323.4z M103.7,380.6H89.2c-1.4,0-2.5-1.1-2.5-2.5v-66.5  c0-1.4,1.1-2.5,2.5-2.5h14.5c1.4,0,2.5,1.1,2.5,2.5v66.5C106.2,379.5,105.1,380.6,103.7,380.6z M156.8,366.4c2.9,0,6.3-0.5,10.2-1.6  c1.1-0.3,2.1,0.5,2.1,1.6v11.2c0,0.7-0.4,1.3-1,1.5c-4.7,1.9-10.3,2.8-16.9,2.8c-7.8,0-13.5-2-17-5.9c-3.6-3.9-5.3-9.8-5.3-17.7  v-34.4h-7.7c-0.9,0-1.7-0.7-1.7-1.7v-6.4c0-0.1,0.1-0.3,0.2-0.4l10.5-6.4l5.2-14c0.2-0.6,0.9-1.1,1.6-1.1h9.7c0.9,0,1.7,0.7,1.7,1.7  v13.5h19.2c0.5,0,0.8,0.4,0.8,0.8v12.1c0,0.9-0.7,1.7-1.7,1.7h-18.3v34.4c0,2.8,0.8,4.8,2.3,6.1  C152.1,365.7,154.2,366.4,156.8,366.4z M247.2,380.6c-1.8,0-3.5-1.2-4-2.9l-14.2-43.5c-1-3.2-2.2-7.8-3.8-13.9h-0.4l-1.3,4.7  l-2.9,9.3l-14.5,43.4c-0.6,1.7-2.2,2.9-4,2.9l0,0c-1.9,0-3.6-1.3-4.1-3.1l-17.9-62.4c-0.6-2,0.9-3.9,3-3.9h0.3c1.4,0,2.6,0.9,3,2.3  l10.5,38c2.6,10,4.3,17.3,5.1,22h0.4c2.5-10,4.3-16.6,5.5-19.9l13.4-39.7c0.5-1.6,2.1-2.7,3.8-2.7l0,0c1.7,0,3.3,1.1,3.8,2.8  l12.7,39.5c3.1,10,4.9,16.6,5.6,19.9h0.4c0.3-2.8,2-10.2,5.1-22.2l10-37.6c0.4-1.3,1.6-2.3,3-2.3h0c2,0,3.5,1.9,3,3.9l-16.9,62.4  c-0.5,1.8-2.2,3.1-4.1,3.1H247.2z M326.9,380.6c-1.2,0-2.3-0.9-2.5-2.1l-1.3-8.8h-0.5c-3.5,4.5-7.1,7.6-10.8,9.5  c-3.7,1.9-8,2.8-13.1,2.8c-6.8,0-12.1-1.7-15.9-5.2c-3.4-3.1-5.2-7.3-5.6-12.5c-0.5-6.9,2.4-13.7,8.1-17.6  c5.7-3.9,13.9-5.9,24.8-6.1l13.2-0.4v-4.6c0-6.6-1.3-11.6-4-14.9c-2.7-3.4-7-5-13-5c-5.6,0-11.3,1.3-17.3,4c-1.5,0.7-3.3,0-3.9-1.5  l0,0c-0.6-1.5,0.1-3.2,1.6-3.9c6.7-2.8,13.3-4.2,19.9-4.2c7.6,0,13.3,2,17.1,5.9c3.8,4,5.7,10.1,5.7,18.5v43.7  C329.4,379.5,328.3,380.6,326.9,380.6L326.9,380.6z M299.2,376.1c7.4,0,13.3-2.1,17.5-6.4c4.3-4.2,6.4-10.1,6.4-17.7v-6.8l-12.1,0.5  c-9.8,0.5-16.7,2-20.9,4.6c-4.2,2.6-6.2,6.6-6.2,12c0,4.3,1.3,7.7,4,10.1C290.6,374.9,294.4,376.1,299.2,376.1z M378.7,309.8  c2,0,4.1,0.1,6.3,0.4c1.7,0.2,2.9,1.9,2.5,3.6v0c-0.3,1.6-1.9,2.6-3.5,2.4c-2-0.3-4-0.5-6.1-0.5c-5.9,0-10.8,2.5-14.6,7.5  c-3.8,5-5.7,11.4-5.7,19v35.2c0,1.7-1.4,3.2-3.2,3.2h0c-1.7,0-3.2-1.4-3.2-3.2v-63.5c0-1.5,1.2-2.8,2.8-2.8l0,0  c1.5,0,2.7,1.1,2.7,2.6l0.5,9.9h0.4c2.9-5.1,5.9-8.7,9.1-10.8C370.2,310.9,374.1,309.8,378.7,309.8z M425.9,309.8  c5,0,9.4,0.9,13,2.7c3.7,1.8,6.9,5,9.8,9.4h0.4c-0.3-5.4-0.4-10.6-0.4-15.8v-21.8c0-1.7,1.4-3.1,3.1-3.1l0,0c1.7,0,3.1,1.4,3.1,3.1  v94c0,1.2-1,2.2-2.2,2.2l0,0c-1.1,0-2-0.8-2.2-1.9l-1.3-8.7h-0.5c-5.3,7.9-12.9,11.9-22.7,11.9c-9.6,0-16.9-3-22-8.9  c-5.1-6-7.6-14.7-7.6-26.1c0-12,2.5-21.2,7.5-27.5C409,313,416.3,309.8,425.9,309.8z M425.9,315.6c-7.6,0-13.3,2.7-17.1,8  c-3.8,5.3-5.7,13.1-5.7,23.2c0,19.7,7.6,29.5,22.9,29.5c7.8,0,13.6-2.3,17.2-6.8c3.7-4.6,5.5-12.1,5.5-22.6v-1.1  c0-10.7-1.8-18.5-5.4-23.2C439.8,317.9,433.9,315.6,425.9,315.6z M506.4,381.9c-10.1,0-18-3.1-23.6-9.3c-5.6-6.2-8.5-14.9-8.5-26.1  c0-11.1,2.7-19.9,8.2-26.6c5.5-6.7,12.8-10,22-10c8.2,0,14.6,2.9,19.4,8.6c4.7,5.7,7.1,13.5,7.1,23.3v5.1h-50  c0.1,9.5,2.3,16.8,6.7,21.8c4.4,5,10.6,7.5,18.7,7.5c4,0,7.4-0.3,10.4-0.8c2.2-0.4,4.8-1.1,7.8-2.2c1.8-0.6,3.6,0.7,3.6,2.6l0,0  c0,1.1-0.7,2.1-1.7,2.5c-3.3,1.3-6.3,2.2-9.1,2.8C514,381.6,510.4,381.9,506.4,381.9z M504.5,315.4c-6.7,0-12.1,2.2-16.1,6.6  c-4,4.4-6.4,10.8-7.1,19.1h42.9c0-8-1.7-14.3-5.2-18.9C515.5,317.7,510.7,315.4,504.5,315.4z M601.7,380.6c-1.7,0-3.1-1.4-3.1-3.1  v-41.9c0-7-1.5-12.1-4.4-15.2c-2.9-3.2-7.5-4.8-13.7-4.8c-8.3,0-14.4,2.1-18.2,6.3c-3.9,4.2-5.8,11-5.8,20.4v35.2  c0,1.7-1.4,3.1-3.1,3.1h-0.1c-1.7,0-3.1-1.4-3.1-3.1V314c0-1.6,1.3-2.9,2.9-2.9l0,0c1.4,0,2.6,1.1,2.8,2.5l0.9,7h0.4  c4.5-7.2,12.5-10.9,24.1-10.9c15.8,0,23.6,8.5,23.6,25.4v42.3C604.8,379.2,603.4,380.6,601.7,380.6L601.7,380.6z M96.5,280.2  L96.5,280.2c-6.3,0-11.4,4.9-11.4,10.9v0.9c0,6,5.1,10.9,11.4,10.9h0c6.3,0,11.4-4.9,11.4-10.9v-0.9  C107.9,285.1,102.8,280.2,96.5,280.2z M409.5,7.5c-2.1-2.1-4.7-3.2-7.6-3.2H207.7c-2.9,0-5.5,1.1-7.6,3.2c-2.1,2.1-3.2,4.7-3.2,7.6  v129.5c0,9.7,1.9,19.2,5.6,28.7c3.8,9.5,8.4,17.9,14,25.3c5.6,7.4,12.2,14.5,19.9,21.5c7.7,7,14.8,12.8,21.3,17.4  c6.5,4.6,13.3,9,20.4,13.1c7.1,4.1,12.1,6.9,15.1,8.3c3,1.5,5.4,2.6,7.2,3.4c1.3,0.7,2.8,1,4.4,1c1.6,0,3-0.3,4.4-1  c1.8-0.8,4.2-1.9,7.2-3.4c3-1.5,8-4.2,15.1-8.3c7.1-4.1,13.9-8.5,20.4-13.1c6.5-4.6,13.6-10.4,21.3-17.4c7.7-7,14.3-14.1,19.9-21.5  c5.6-7.4,10.2-15.8,14-25.3c3.8-9.5,5.6-19.1,5.6-28.7V15.1C412.7,12.2,411.6,9.7,409.5,7.5z M384.5,145.8  c0,46.9-79.6,87.2-79.6,87.2v-201h79.6C384.5,32.1,384.5,98.9,384.5,145.8z"/>
</svg>