<svg xmlns="http://www.w3.org/2000/svg" xmlns:xlink="http://www.w3.org/1999/xlink" version="1.1" id="Layer_1" x="0px" y="0px" width="100%" viewBox="0 0 264 257" enable-background="new 0 0 264 257" xml:space="preserve">
 <path fill="#E4E4E4" opacity="1.000000" stroke="none" d=" M71.609131,229.518326   C68.426567,225.920135 64.970978,222.873230 62.751945,219.099258   C47.911900,193.860229 33.398357,168.429504 18.640539,143.141708   C13.187543,133.797913 12.981452,124.775185 18.489357,115.336395   C33.246262,90.047791 47.902607,64.698830 62.368835,39.243099   C68.030563,29.280348 76.038368,24.602238 87.597198,24.711365   C117.078773,24.989700 146.564896,24.852886 176.048889,24.771137   C186.109589,24.743242 193.715576,28.860653 198.734329,37.531605   C213.816666,63.589493 228.797241,89.706299 243.887268,115.759720   C249.138031,124.825317 248.979309,133.646362 243.722900,142.685043   C228.673035,168.564102 213.732117,194.506699 198.813293,220.461655   C193.983551,228.864166 186.734940,233.305206 177.178284,233.346451   C146.362473,233.479431 115.544189,233.511841 84.730797,233.196899   C80.445236,233.153091 76.181816,230.941376 71.609131,229.518326  M78.606194,66.119225   C69.444603,81.965660 60.218876,97.775497 51.146469,113.672829   C46.041840,122.617531 49.916084,129.038330 60.291809,129.055801   C78.453781,129.086365 96.629311,129.488617 114.773079,128.913040   C126.585663,128.538315 134.187042,133.384277 139.727249,143.502274   C148.516373,159.553741 157.870499,175.296982 167.055344,191.130157   C171.758453,199.237503 179.296051,199.224167 184.035858,191.086792   C193.668762,174.548920 203.142136,157.917892 212.816940,141.404755   C217.770859,132.949310 217.569672,124.788757 212.653168,116.389267   C202.397583,98.868355 192.331085,81.236839 182.158768,63.667065   C177.687454,55.944153 170.956879,52.087963 162.015778,52.091732   C142.020920,52.100159 122.023804,52.274700 102.032104,52.023438   C91.432655,51.890213 83.762726,56.048679 78.606194,66.119225  z"/>
 </svg>
