<svg xmlns="http://www.w3.org/2000/svg" viewBox="0 0 294.3485 100.6501">
 <defs>
     <style>
         .cls-1 {
             fill: #999;
         }

         .cls-2 {
             fill: #009639;
         }

         .cls-3,.cls-4 {
             fill: none;
             stroke: #fff;
             stroke-linecap: round;
             stroke-linejoin: round;
         }

         .cls-3 {
             stroke-width: 2px;
         }

         .cls-4 {
             stroke-width: 1.33px;
         }
     </style>
 </defs>
 <g id="_Layer_" data-name="&lt;Layer&gt;">
     <path class="cls-1" d="M296.3263,93.17607h.38128v-.8492h.30159a.86052.86052,0,0,1,.42363.07073.53056.53056,0,0,1,.20132.494v.17411l.00854.06491a.13058.13058,0,0,1,.00584.0272c.00194.0105.00272.0136.00855.01827h.35328l-.01282-.0241a.24783.24783,0,0,1-.0171-.11037c-.005-.061-.005-.1131-.005-.16129V92.7194a.61577.61577,0,0,0-.11816-.33656.5489.5489,0,0,0-.37621-.21143.92871.92871,0,0,0,.31365-.10183.4704.4704,0,0,0,.21064-.42751.53128.53128,0,0,0-.33346-.54838,1.65906,1.65906,0,0,0-.59114-.07735h-.75438Zm1.08434-1.16439a.98636.98636,0,0,1-.36261.04819h-.34045v-.78624h.32491a.959.959,0,0,1,.45821.08434.32712.32712,0,0,1,.14342.31519.33274.33274,0,0,1-.22348.33852m1.10727-1.29809a1.91564,1.91564,0,0,0-1.40031-.57248,1.96968,1.96968,0,0,0,0,3.93934,1.97317,1.97317,0,0,0,1.40031-3.36686m-.20015.19549a1.61325,1.61325,0,0,1,.49436,1.1982,1.69265,1.69265,0,0,1-2.89313,1.204,1.671,1.671,0,0,1-.492-1.204,1.69846,1.69846,0,0,1,1.69064-1.70111,1.61519,1.61519,0,0,1,1.20016.50291" transform="translate(-4.74579 -0.3816)"/>
     <path d="M19.24591,73.9106V94.08052H15.94119L8.02121,80.434V94.08052H4.74579V73.9106H8.02121l7.92,13.73145V73.9106Z" transform="translate(-4.74579 -0.3816)"/>
     <path d="M34.22748,81.08931v-.93945c0-2.1084-1.59572-3.39063-4.38774-3.39063-2.82033,0-4.41507,1.28223-4.41507,3.39063v7.69141c0,2.10839,1.59474,3.39062,4.38675,3.39062,2.82034,0,4.41606-1.28223,4.41606-3.39062V86.559H29.69716V83.312h8.03425v4.72851c0,3.90332-2.87795,6.43848-7.89167,6.43848s-7.92-2.53516-7.92-6.43848V79.95064c0-3.90332,2.87795-6.43848,7.89166-6.43848,5.042,0,7.92,2.53516,7.92,6.43848v1.13867Z" transform="translate(-4.74579 -0.3816)"/>
     <path d="M40.39061,73.9106h3.50394V94.08052H40.39061Z" transform="translate(-4.74579 -0.3816)"/>
     <path d="M61.18766,73.9106V94.08052H57.88294L49.963,80.434V94.08052H46.68754V73.9106H49.963l7.92,13.73145V73.9106Z" transform="translate(-4.74579 -0.3816)"/>
     <path d="M73.24049,84.08052l6.12505,10H75.29129l-4.21586-6.92285-4.30179,6.92285h-3.875l6.12505-10.25586L62.95623,73.9106H67.0295l4.21683,6.86524,4.33012-6.86524h3.93167Z" transform="translate(-4.74579 -0.3816)"/>
     <path d="M88.11366,73.9106h3.50393V94.08052H88.11366Z" transform="translate(-4.74579 -0.3816)"/>
     <path d="M106.48783,85.67623v8.40429h-3.38967V85.64791c0-2.22266-1.168-3.27637-2.878-3.27637a2.83731,2.83731,0,0,0-3.01955,2.84863v8.86035H93.83929V79.60787h2.19338l.627,1.2539a5.97272,5.97272,0,0,1,4.35843-1.65234C104.3511,79.20943,106.48783,81.11861,106.48783,85.67623Z" transform="translate(-4.74579 -0.3816)"/>
     <path d="M121.3317,79.60787V95.44771c0,3.13379-2.05079,5.584-6.35259,5.584-4.18851,0-6.06841-2.2793-6.211-4.87207h3.39066c.1416,1.11132,1.1963,1.73828,2.791,1.73828,1.71,0,2.99124-.82618,2.99124-2.56446V93.39693a6.26788,6.26788,0,0,1-3.78812,1.082c-3.47561,0-5.64067-1.79492-5.64067-6.09668V85.30611c0-4.30176,2.16506-6.09668,5.64067-6.09668a5.93485,5.93485,0,0,1,4.33012,1.53809l.56934-1.13965Zm-3.39065,9.17383v-3.875a2.74067,2.74067,0,0,0-3.04788-2.53516c-1.90821,0-2.99123.96875-2.99123,3.10547v2.76367c0,2.10742,1.083,3.07617,2.99123,3.07617A2.75606,2.75606,0,0,0,117.94105,88.7817Z" transform="translate(-4.74579 -0.3816)"/>
     <path d="M131.58862,79.38033v2.99121a5.23378,5.23378,0,0,0-1.33888-.19922,3.02235,3.02235,0,0,0-3.27639,3.19043v8.71777H123.612V79.60787h2.27931l.65528,1.31054a6.40384,6.40384,0,0,1,4.33011-1.59472A5.58,5.58,0,0,1,131.58862,79.38033Z" transform="translate(-4.74579 -0.3816)"/>
     <path d="M144.80846,84.67916v3.19043h-9.11629v.42773c0,2.30762,1.083,3.36133,3.01956,3.36133,1.45313,0,2.67775-.74024,2.67775-1.96582v-.22754h3.39066c0,3.13379-2.4219,5.01367-6.06841,5.01367-4.1309,0-6.40923-2.50683-6.40923-6.2959V85.42037c0-3.78907,2.27833-6.21094,6.32427-6.21094C142.32992,79.20943,144.80846,81.51705,144.80846,84.67916Zm-3.4473.59863v-.57031a2.3591,2.3591,0,0,0-2.67775-2.67774c-2.02248,0-2.96292,1.13965-2.99124,3.248Z" transform="translate(-4.74579 -0.3816)"/>
     <path d="M146.29187,89.60787v-.31348h3.36135v.31348c0,1.19629,1.11036,1.9082,2.7344,1.9082,1.36818,0,2.36525-.541,2.36525-1.48144,0-2.64942-8.20514-.88282-8.20514-6.15333,0-2.82031,2.27932-4.67187,5.64067-4.67187,3.50394,0,5.69731,1.96582,5.69731,4.72949v.28418h-3.36135v-.28418c0-1.083-.91114-1.7666-2.336-1.7666-1.45314,0-2.30764.65527-2.30764,1.48145,0,2.39257,8.23347.76855,8.23347,6.15332,0,3.13379-2.76369,4.67187-5.89751,4.67187C148.57021,94.479,146.29187,92.48482,146.29187,89.60787Z" transform="translate(-4.74579 -0.3816)"/>
     <path d="M159.54,89.60787v-.31348h3.36136v.31348c0,1.19629,1.11036,1.9082,2.7344,1.9082,1.36817,0,2.36525-.541,2.36525-1.48144,0-2.64942-8.20515-.88282-8.20515-6.15333,0-2.82031,2.27932-4.67187,5.64068-4.67187,3.50393,0,5.69731,1.96582,5.69731,4.72949v.28418h-3.36136v-.28418c0-1.083-.91114-1.7666-2.336-1.7666-1.45314,0-2.30764.65527-2.30764,1.48145,0,2.39257,8.23347.76855,8.23347,6.15332,0,3.13379-2.7637,4.67187-5.89751,4.67187C161.81836,94.479,159.54,92.48482,159.54,89.60787Z" transform="translate(-4.74579 -0.3816)"/>
     <path d="M179.36831,88.04048V79.95064c0-3.90332,2.87795-6.43848,7.89167-6.43848,5.042,0,7.92,2.53516,7.92,6.43848v1.56641h-3.67483V80.14986c0-2.1084-1.36818-3.39063-4.21683-3.39063-2.93362,0-4.41508,1.28223-4.41508,3.39063v7.69141c0,2.10839,1.45216,3.39062,4.38676,3.39062,2.877,0,4.24515-1.28223,4.24515-3.39062V86.44576H195.18v1.59472c0,3.90332-2.87795,6.43848-7.89166,6.43848S179.36831,91.9438,179.36831,88.04048Z" transform="translate(-4.74579 -0.3816)"/>
     <path d="M196.83427,88.32564V85.36275c0-3.78906,2.27834-6.15332,6.38092-6.15332,4.13089,0,6.4102,2.36426,6.4102,6.15332v2.96289c0,3.78906-2.27931,6.15332-6.38188,6.15332S196.83427,92.1147,196.83427,88.32564Zm9.40047-.11426V85.477c0-2.05176-.91114-3.13379-2.99123-3.13379-2.07912,0-3.01956,1.082-3.01956,3.13379v2.73437c0,2.05176.94044,3.13379,2.99124,3.13379C205.29528,91.34517,206.23474,90.26314,206.23474,88.21138Z" transform="translate(-4.74579 -0.3816)"/>
     <path d="M224.21243,85.67623v8.40429h-3.38968V85.64791c0-2.22266-1.168-3.27637-2.878-3.27637a2.83733,2.83733,0,0,0-3.01956,2.84863v8.86035h-3.36135V79.60787h2.19337l.627,1.2539a5.97274,5.97274,0,0,1,4.35844-1.65234C222.07569,79.20943,224.21243,81.11861,224.21243,85.67623Z" transform="translate(-4.74579 -0.3816)"/>
     <path d="M234.86876,90.94673v3.13379H232.818c-3.419,0-5.15727-1.7666-5.15727-5.4414V82.74166h-1.93654V79.60787h1.93654V75.478h3.39065v4.12989h3.61819v3.13379h-3.61819v5.24218c0,2.05079.82618,2.96289,2.47854,2.96289Z" transform="translate(-4.74579 -0.3816)"/>
     <path d="M245.01143,79.38033v2.99121a5.23378,5.23378,0,0,0-1.33888-.19922,3.02236,3.02236,0,0,0-3.2764,3.19043v8.71777H237.0348V79.60787h2.27931l.65528,1.31054a6.40385,6.40385,0,0,1,4.33012-1.59472A5.58014,5.58014,0,0,1,245.01143,79.38033Z" transform="translate(-4.74579 -0.3816)"/>
     <path d="M245.89522,88.32564V85.36275c0-3.78906,2.27834-6.15332,6.38091-6.15332,4.1309,0,6.41021,2.36426,6.41021,6.15332v2.96289c0,3.78906-2.27931,6.15332-6.38189,6.15332S245.89522,92.1147,245.89522,88.32564Zm9.40047-.11426V85.477c0-2.05176-.91114-3.13379-2.99124-3.13379-2.07911,0-3.01955,1.082-3.01955,3.13379v2.73437c0,2.05176.94044,3.13379,2.99123,3.13379C254.35623,91.34517,255.29569,90.26314,255.29569,88.21138Z" transform="translate(-4.74579 -0.3816)"/>
     <path d="M263.95689,72.144V94.08052h-3.38967V72.144Z" transform="translate(-4.74579 -0.3816)"/>
     <path d="M269.94034,72.144V94.08052h-3.38968V72.144Z" transform="translate(-4.74579 -0.3816)"/>
     <path d="M284.41311,84.67916v3.19043h-9.11628v.42773c0,2.30762,1.083,3.36133,3.01956,3.36133,1.45313,0,2.67775-.74024,2.67775-1.96582v-.22754h3.39065c0,3.13379-2.42189,5.01367-6.0684,5.01367-4.1309,0-6.40924-2.50683-6.40924-6.2959V85.42037c0-3.78907,2.27834-6.21094,6.32427-6.21094C281.93458,79.20943,284.41311,81.51705,284.41311,84.67916Zm-3.44729.59863v-.57031a2.3591,2.3591,0,0,0-2.67776-2.67774c-2.02247,0-2.96291,1.13965-2.99123,3.248Z" transform="translate(-4.74579 -0.3816)"/>
     <path d="M294.41417,79.38033v2.99121a5.23372,5.23372,0,0,0-1.33888-.19922,3.02235,3.02235,0,0,0-3.27639,3.19043v8.71777h-3.36135V79.60787h2.27931l.65528,1.31054a6.40384,6.40384,0,0,1,4.33011-1.59472A5.58,5.58,0,0,1,294.41417,79.38033Z" transform="translate(-4.74579 -0.3816)"/>
     <path class="cls-2" d="M123.70265,45.20229a3.01871,3.01871,0,0,0,1.13412,1.12542l23.201,13.395.00072-.00072a3.04441,3.04441,0,0,0,3.08372,0L174.324,46.327a3.04251,3.04251,0,0,0,1.54113-2.66944v-26.79l-.00073-.00073a3.04344,3.04344,0,0,0-1.54185-2.67016L151.12077.80164V.80092a3.0404,3.0404,0,0,0-3.08154,0V.80164l-23.201,13.395a3.04214,3.04214,0,0,0-1.54258,2.67016l-.00073.00073v26.79a3.02484,3.02484,0,0,0,.407,1.54474" transform="translate(-4.74579 -0.3816)"/>
     <rect class="cls-3" x="128.70622" y="19.76025" width="20.38597" height="20.38581"/>
     <rect class="cls-4" x="155.07671" y="17.39654" width="5.88552" height="5.88547"/>
     <rect class="cls-4" x="155.07671" y="26.93712" width="5.88552" height="5.88547"/>
     <rect class="cls-4" x="155.07671" y="36.4777" width="5.88552" height="5.88547"/>
     <line class="cls-4" x1="149.55454" y1="29.95315" x2="154.73096" y2="29.95315"/>
     <line class="cls-4" x1="149.27882" y1="32.38848" x2="155.15699" y2="36.86512"/>
     <line class="cls-4" x1="149.27882" y1="27.51783" x2="155.15699" y2="23.04119"/>
 </g>
</svg>
